<?xml version="1.0" encoding="utf-8"?>
<!-- Generator: Adobe Illustrator 19.2.1, SVG Export Plug-In . SVG Version: 6.00 Build 0)  -->
<svg version="1.1" id="Layer_1" xmlns="http://www.w3.org/2000/svg" xmlns:xlink="http://www.w3.org/1999/xlink" x="0px" y="0px"
	 viewBox="0 0 46 20" style="enable-background:new 0 0 46 20;" xml:space="preserve">
<style type="text/css">
	.st0{opacity:0.5;}
	.st1{fill:#FFFFFF;}
</style>
<g id="FWI_Logo_1_">
	<g class="st0">
		<polygon class="st1" points="18.838,20 23.983,0 29.711,0 24.566,20 		"/>
		<polygon class="st1" points="29.129,20 34.275,0 40.002,0 34.857,20 		"/>
	</g>
	<g>
		<g>
			<rect x="40.002" y="0" class="st1" width="5.719" height="20"/>
			<polygon class="st1" points="13.693,5.037 13.693,0 1.638,0 1.638,0 0,0 0,20 5.719,20 5.719,13.286 13.693,13.286 13.693,8.249 
				5.719,8.249 5.719,5.037 			"/>
			<polygon class="st1" points="24.566,20 19.42,0 13.693,0 18.838,20 			"/>
			<polygon class="st1" points="34.857,20 29.712,0 23.984,0 29.129,20 			"/>
		</g>
	</g>
</g>
</svg>
